<?xml version="1.0" encoding="UTF-8" standalone="no"?>
<!-- Generator: Adobe Illustrator 21.0.2, SVG Export Plug-In . SVG Version: 6.00 Build 0)  -->

<svg
   version="1.1"
   id="Calque_1"
   x="0px"
   y="0px"
   viewBox="0 0 409.00221 69.400003"
   xml:space="preserve"
   sodipodi:docname="logo-parcoursup.svg"
   width="409.0022"
   height="69.400002"
   inkscape:version="1.2.2 (732a01da63, 2022-12-09)"
   xmlns:inkscape="http://www.inkscape.org/namespaces/inkscape"
   xmlns:sodipodi="http://sodipodi.sourceforge.net/DTD/sodipodi-0.dtd"
   xmlns="http://www.w3.org/2000/svg"
   xmlns:svg="http://www.w3.org/2000/svg"><defs
   id="defs115" /><sodipodi:namedview
   id="namedview113"
   pagecolor="#ffffff"
   bordercolor="#000000"
   borderopacity="0.25"
   inkscape:showpageshadow="2"
   inkscape:pageopacity="0.0"
   inkscape:pagecheckerboard="0"
   inkscape:deskcolor="#d1d1d1"
   showgrid="false"
   inkscape:zoom="2.7436242"
   inkscape:cx="225.61399"
   inkscape:cy="45.195694"
   inkscape:window-width="1920"
   inkscape:window-height="1057"
   inkscape:window-x="1912"
   inkscape:window-y="-5"
   inkscape:window-maximized="1"
   inkscape:current-layer="Calque_1" />
<style
   type="text/css"
   id="style2">
	.st0{fill:#3D566E;}
	.st1{fill:#FF3333;}
</style>
<path
   class="st0"
   d="m 70.7,46.9 c -1.8,1.8 -4.7,2.9 -7.9,2.9 -3.3,0 -5.7,-0.9 -7.8,-3.2 V 61.3 H 46.9 V 17.1 h 7.8 v 3 c 2.2,-2.5 4.7,-3.400001 8.1,-3.400001 3.2,0 6.1,1.100001 7.9,2.900001 3.2,3.2 3.3,8.8 3.3,13.6 0,4.9 -0.1,10.5 -3.3,13.7 z M 60.4,24 c -4.8,0 -5.5,4 -5.5,9.3 0,5.3 0.6,9.3 5.5,9.3 4.9,0 5.5,-4 5.5,-9.3 C 65.9,28 65.3,24 60.4,24 Z"
   id="path4" />
<path
   class="st0"
   d="m 98.2,49.4 v -2.8 c -2.2,2.2 -4.2,3.1 -7.9,3.1 -3.7,0 -6.3,-0.9 -8.3,-2.9 -1.7,-1.7 -2.6,-4.3 -2.6,-7.2 0,-5.2 3.5,-9.4 11.1,-9.4 h 7.6 v -1.6 c 0,-3.5 -1.7,-5.1 -6,-5.1 -3.1,0 -4.5,0.7 -6.2,2.7 l -5.2,-5.000001 c 3.2,-3.5 6.3,-4.5 11.7,-4.5 9.1,0 13.8,3.800001 13.8,11.400001 V 49.4 Z M 98,35.8 h -6.4 c -2.9,0 -4.5,1.4 -4.5,3.7 0,2.2 1.5,3.7 4.7,3.7 2.2,0 3.7,-0.2 5.1,-1.6 0.9,-0.8 1.2,-2.1 1.2,-4.1 v -1.7 z"
   id="path6" />
<path
   class="st0"
   d="m 132.4,25.9 c -1.2,-1.2 -2.3,-1.9 -4.3,-1.9 -2.5,0 -5.2,1.9 -5.2,6 v 19.5 h -8.1 V 17.1 h 7.9 v 3.099999 c 1.6,-1.899999 4.7,-3.5 8.1,-3.5 3.2,0 5.4,0.800001 7.6,3 z"
   id="path8" />
<path
   class="st0"
   d="m 154,49.8 c -6.5,0 -14.5,-3.5 -14.5,-16.6 0,-13.1 8,-16.5 14.5,-16.5 4.5,0 7.8,1.4 10.7,4.3 l -5.5,5.5 C 157.5,24.7 156.1,24 154,24 c -1.9,0 -3.4,0.7 -4.6,2.1 -1.2,1.6 -1.8,3.7 -1.8,7.1 0,3.4 0.6,5.7 1.8,7.2 1.2,1.4 2.7,2.1 4.6,2.1 2.1,0 3.5,-0.7 5.2,-2.5 l 5.5,5.4 c -2.9,3 -6.2,4.4 -10.7,4.4 z"
   id="path10" />
<path
   class="st0"
   d="m 192.2,45.8 c -2,2.1 -5.3,4 -10.1,4 -4.8,0 -8,-1.9 -10,-4 -2.9,-3 -3.7,-6.7 -3.7,-12.6 0,-5.8 0.7,-9.5 3.7,-12.5 2,-2.1 5.2,-4 10,-4 4.8,0 8.1,1.9 10.1,4 2.9,3 3.7,6.7 3.7,12.5 -0.1,5.9 -0.8,9.6 -3.7,12.6 z M 185.9,25.4 C 185,24.5 183.7,24 182.1,24 c -1.6,0 -2.8,0.5 -3.7,1.4 -1.7,1.7 -1.9,4.5 -1.9,7.8 0,3.4 0.2,6.2 1.9,7.9 0.9,0.9 2.1,1.4 3.7,1.4 1.6,0 2.9,-0.5 3.8,-1.4 1.7,-1.7 1.9,-4.5 1.9,-7.9 0,-3.3 -0.2,-6.1 -1.9,-7.8 z"
   id="path12" />
<path
   class="st0"
   d="m 222.1,49.4 v -3 c -2.1,2.2 -5.1,3.4 -8.1,3.4 -3.2,0 -5.8,-1.1 -7.6,-2.9 -2.6,-2.6 -3.3,-5.6 -3.3,-9.2 V 17.1 h 8.1 v 19.6 c 0,4.4 2.8,5.9 5.3,5.9 2.5,0 5.4,-1.5 5.4,-5.9 V 17.1 h 8.1 v 32.3 z"
   id="path14" />
<path
   class="st0"
   d="m 256.7,25.9 c -1.2,-1.2 -2.3,-1.9 -4.3,-1.9 -2.5,0 -5.2,1.9 -5.2,6 v 19.5 h -8.1 V 17.1 h 7.9 v 3.099999 c 1.6,-1.899999 4.7,-3.5 8.1,-3.5 3.2,0 5.4,0.800001 7.6,3 z"
   id="path16" />
<g
   transform="matrix(0.00979287,0,0,-0.00979287,263.62278,68.749182)"
   fill="#000000"
   stroke="none"
   id="g354"
   style="fill:#ff3333;fill-opacity:1"><path
     d="m 6697,6592 c -16,-17 -17,-163 -17,-1903 0,-2023 -1,-1981 51,-2168 11,-42 41,-119 67,-171 37,-77 61,-110 127,-176 66,-67 97,-89 175,-128 182,-89 353,-116 738,-116 208,0 251,2 270,16 l 22,15 v 373 c 0,349 -1,374 -18,389 -15,14 -40,17 -128,17 -232,0 -316,54 -344,221 -6,42 -10,665 -10,1840 0,1708 -1,1777 -18,1792 -17,15 -63,17 -459,17 -413,0 -441,-1 -456,-18 z"
     id="path344"
     style="fill:#ff3333;fill-opacity:1" /><path
     d="m 4568,5340 c -164,-20 -293,-63 -410,-134 -96,-58 -169,-119 -220,-182 l -43,-54 -5,141 c -4,124 -7,142 -24,155 -16,12 -96,14 -458,14 -425,0 -439,-1 -458,-20 -20,-20 -20,-33 -20,-2250 0,-2217 0,-2230 20,-2250 19,-19 33,-20 458,-20 363,0 442,2 458,14 18,14 19,37 24,765 l 5,752 40,-51 c 48,-61 147,-144 230,-192 148,-85 300,-125 520,-134 583,-27 1002,241 1183,756 73,209 107,414 123,741 13,262 2,610 -26,794 -33,217 -91,416 -163,560 -158,319 -407,508 -762,580 -89,18 -376,27 -472,15 z m 25,-814 c 208,-40 331,-170 393,-413 53,-210 55,-760 4,-973 -29,-120 -87,-234 -151,-298 -119,-119 -325,-169 -524,-127 -242,51 -374,232 -415,565 -13,109 -13,571 0,680 24,199 83,350 171,440 117,118 313,166 522,126 z"
     id="path346"
     style="fill:#ff3333;fill-opacity:1" /><path
     d="m 8747,5262 c -16,-17 -17,-111 -17,-1152 0,-971 2,-1147 16,-1237 91,-615 495,-973 1099,-973 330,0 584,102 782,314 l 62,65 3,-140 c 3,-126 5,-142 22,-155 16,-12 96,-14 458,-14 425,0 439,1 458,20 20,20 20,33 20,1635 0,1602 0,1615 -20,1635 -19,19 -33,20 -458,20 -363,0 -442,-2 -458,-14 -19,-14 -19,-40 -24,-1073 l -5,-1058 -31,-85 c -82,-231 -235,-340 -473,-340 -242,1 -401,131 -474,388 -21,77 -22,83 -25,1112 -2,936 -4,1036 -19,1052 -15,17 -46,18 -458,18 -415,0 -443,-1 -458,-18 z"
     id="path350"
     style="fill:#ff3333;fill-opacity:1" /><path
     d="m 127,4172 c -15,-17 -17,-59 -17,-399 0,-355 1,-381 18,-396 17,-16 103,-17 1030,-17 999,0 1012,0 1032,20 19,19 20,33 20,395 0,362 -1,376 -20,395 -20,20 -33,20 -1033,20 -970,0 -1015,-1 -1030,-18 z"
     id="path352"
     style="fill:#ff3333;fill-opacity:1" /></g>


<g
   id="g102"
   transform="translate(100.4,-32.5)">
	<g
   id="g94">
		<path
   class="st0"
   d="m 295.2,55.9 c 2.8,0 5.7,0.5 7.5,2.2 l 5,-5 c -3.1,-2.9 -7.3,-3.8 -12.4,-3.8 -0.2,0 -0.3,0 -0.5,0 v 6.6 c 0.2,0 0.3,0 0.4,0 z"
   id="path90" />
		<path
   class="st0"
   d="m 299,62.3 -4.2,-0.4 v 7 l 2.5,0.2 c 2.5,0.2 3.4,1.4 3.4,3 0,2.4 -2.9,3.4 -5.7,3.4 -0.1,0 -0.1,0 -0.2,0 v 6.9 c 0,0 0.1,0 0.1,0 7.6,0 13.7,-3.4 13.7,-10.6 0.1,-5.5 -3.2,-8.9 -9.6,-9.5 z"
   id="path92" />
	</g>
	<g
   id="g100">
		<path
   class="st1"
   d="m 282.8,59.5 c 0,6 3.6,8.5 9.4,9.1 l 2.6,0.3 v -7 l -0.9,-0.1 c -2.9,-0.2 -3.4,-1.6 -3.4,-2.8 0,-1.6 1.3,-3 4.3,-3.1 v -6.6 c -6.3,0.1 -12,3.7 -12,10.2 z"
   id="path96" />
		<path
   class="st1"
   d="m 286.4,72.4 -5.3,5.3 c 4.1,4.1 8.6,4.6 13.7,4.7 V 75.5 C 292.4,75.4 289,75 286.4,72.4 Z"
   id="path98" />
	</g>
</g>
<g
   id="g110"
   transform="translate(-17.6,-32.5)">
	<path
   class="st1"
   d="M 35.4,79.9 H 21.7 c -2.2,0 -4.1,1.8 -4.1,4.1 0,2.2 1.8,4.1 4.1,4.1 h 9.7 v 9.7 c 0,2.2 1.8,4.1 4.1,4.1 1.1,0 2.1,-0.5 2.9,-1.2 0.7,-0.7 1.2,-1.8 1.2,-2.9 V 84.1 c 0,-1.1 -0.5,-2.1 -1.2,-2.9 -0.9,-0.9 -1.9,-1.3 -3,-1.3"
   id="path104" />
	<path
   class="st0"
   d="M 52,63 H 38.3 c -2.2,0 -4.1,1.8 -4.1,4.1 0,2.2 1.8,4.1 4.1,4.1 H 48 v 9.7 c 0,2.2 1.8,4.1 4.1,4.1 1.1,0 2.1,-0.5 2.9,-1.2 0.7,-0.7 1.2,-1.8 1.2,-2.9 V 67.2 C 56.2,66.1 55.7,65.1 55,64.3 54.1,63.5 53.1,63 52,63"
   id="path106" /><path
   class="st1"
   d="m 68.7,54.5 h 13.7 c 2.2,0 4.1,-1.8 4.1,-4.100001 0,-2.200001 -1.8,-4.1 -4.1,-4.1 H 72.7 V 36.6 c 0,-2.200001 -1.8,-4.1 -4.1,-4.1 -1.1,0 -2.1,0.5 -2.9,1.2 -0.7,0.7 -1.2,1.8 -1.2,2.9 v 13.7 c 0,1.1 0.5,2.1 1.2,2.9 0.9,0.899999 1.9,1.3 3,1.3"
   id="path104-6"
   style="fill:#ff3333" />
	<path
   class="st1"
   d="M 68.5,46.1 H 54.8 c -2.2,0 -4.1,1.8 -4.1,4.1 0,2.2 1.8,4.1 4.1,4.1 h 9.7 V 64 c 0,2.2 1.8,4.1 4.1,4.1 1.1,0 2.1,-0.5 2.9,-1.2 0.7,-0.7 1.2,-1.8 1.2,-2.9 V 50.3 c 0,-1.1 -0.5,-2.1 -1.2,-2.9 -0.7,-0.8 -1.8,-1.3 -3,-1.3"
   id="path108" />
</g>
</svg>
