<?xml version="1.0" encoding="UTF-8" standalone="no"?>
<!-- Generator: Adobe Illustrator 21.0.2, SVG Export Plug-In . SVG Version: 6.00 Build 0)  -->

<svg
   version="1.1"
   id="Calque_1"
   x="0px"
   y="0px"
   viewBox="0 0 68.900004 69.400003"
   xml:space="preserve"
   sodipodi:docname="logo.svg"
   width="68.900002"
   height="69.400002"
   inkscape:version="1.2.2 (732a01da63, 2022-12-09)"
   xmlns:inkscape="http://www.inkscape.org/namespaces/inkscape"
   xmlns:sodipodi="http://sodipodi.sourceforge.net/DTD/sodipodi-0.dtd"
   xmlns="http://www.w3.org/2000/svg"
   xmlns:svg="http://www.w3.org/2000/svg"><defs
   id="defs115" /><sodipodi:namedview
   id="namedview113"
   pagecolor="#ffffff"
   bordercolor="#000000"
   borderopacity="0.25"
   inkscape:showpageshadow="2"
   inkscape:pageopacity="0.0"
   inkscape:pagecheckerboard="0"
   inkscape:deskcolor="#d1d1d1"
   showgrid="false"
   inkscape:zoom="2.7436242"
   inkscape:cx="225.61399"
   inkscape:cy="45.195694"
   inkscape:window-width="1920"
   inkscape:window-height="1057"
   inkscape:window-x="1912"
   inkscape:window-y="-5"
   inkscape:window-maximized="1"
   inkscape:current-layer="Calque_1" />
<style
   type="text/css"
   id="style2">
	.st0{fill:#3D566E;}
	.st1{fill:#FF3333;}
</style>











<g
   id="g110"
   transform="translate(-17.6,-32.5)">
	<path
   class="st1"
   d="M 35.4,79.9 H 21.7 c -2.2,0 -4.1,1.8 -4.1,4.1 0,2.2 1.8,4.1 4.1,4.1 h 9.7 v 9.7 c 0,2.2 1.8,4.1 4.1,4.1 1.1,0 2.1,-0.5 2.9,-1.2 0.7,-0.7 1.2,-1.8 1.2,-2.9 V 84.1 c 0,-1.1 -0.5,-2.1 -1.2,-2.9 -0.9,-0.9 -1.9,-1.3 -3,-1.3"
   id="path104" />
	<path
   class="st0"
   d="M 52,63 H 38.3 c -2.2,0 -4.1,1.8 -4.1,4.1 0,2.2 1.8,4.1 4.1,4.1 H 48 v 9.7 c 0,2.2 1.8,4.1 4.1,4.1 1.1,0 2.1,-0.5 2.9,-1.2 0.7,-0.7 1.2,-1.8 1.2,-2.9 V 67.2 C 56.2,66.1 55.7,65.1 55,64.3 54.1,63.5 53.1,63 52,63"
   id="path106" /><path
   class="st1"
   d="m 68.7,54.5 h 13.7 c 2.2,0 4.1,-1.8 4.1,-4.100001 0,-2.200001 -1.8,-4.1 -4.1,-4.1 H 72.7 V 36.6 c 0,-2.200001 -1.8,-4.1 -4.1,-4.1 -1.1,0 -2.1,0.5 -2.9,1.2 -0.7,0.7 -1.2,1.8 -1.2,2.9 v 13.7 c 0,1.1 0.5,2.1 1.2,2.9 0.9,0.899999 1.9,1.3 3,1.3"
   id="path104-6"
   style="fill:#ff3333" />
	<path
   class="st1"
   d="M 68.5,46.1 H 54.8 c -2.2,0 -4.1,1.8 -4.1,4.1 0,2.2 1.8,4.1 4.1,4.1 h 9.7 V 64 c 0,2.2 1.8,4.1 4.1,4.1 1.1,0 2.1,-0.5 2.9,-1.2 0.7,-0.7 1.2,-1.8 1.2,-2.9 V 50.3 c 0,-1.1 -0.5,-2.1 -1.2,-2.9 -0.7,-0.8 -1.8,-1.3 -3,-1.3"
   id="path108" />
</g>
</svg>
