<?xml version="1.0" encoding="UTF-8" standalone="no"?>
<!-- Generator: Adobe Illustrator 21.0.2, SVG Export Plug-In . SVG Version: 6.00 Build 0)  -->

<svg
   version="1.1"
   id="Calque_1"
   x="0px"
   y="0px"
   viewBox="0 0 360.50001 58.400003"
   xml:space="preserve"
   sodipodi:docname="logo-parcoursup.svg"
   width="360.5"
   height="58.400002"
   inkscape:version="1.2.2 (732a01da63, 2022-12-09)"
   xmlns:inkscape="http://www.inkscape.org/namespaces/inkscape"
   xmlns:sodipodi="http://sodipodi.sourceforge.net/DTD/sodipodi-0.dtd"
   xmlns="http://www.w3.org/2000/svg"
   xmlns:svg="http://www.w3.org/2000/svg"><defs
   id="defs115" /><sodipodi:namedview
   id="namedview113"
   pagecolor="#ffffff"
   bordercolor="#000000"
   borderopacity="0.25"
   inkscape:showpageshadow="2"
   inkscape:pageopacity="0.0"
   inkscape:pagecheckerboard="0"
   inkscape:deskcolor="#d1d1d1"
   showgrid="false"
   inkscape:zoom="3.8800706"
   inkscape:cx="177.83182"
   inkscape:cy="71.519317"
   inkscape:window-width="1920"
   inkscape:window-height="1051"
   inkscape:window-x="-9"
   inkscape:window-y="-9"
   inkscape:window-maximized="1"
   inkscape:current-layer="Calque_1" />
<style
   type="text/css"
   id="style2">
	.st0{fill:#3D566E;}
	.st1{fill:#FF3333;}
</style>
<path
   class="st0"
   d="M 70.7,33.3 C 68.9,35.1 66,36.2 62.8,36.2 59.5,36.2 57.1,35.3 55,33 V 47.7 H 46.9 V 3.4999995 h 7.8 v 3 c 2.2,-2.5 4.7,-3.4 8.1,-3.4 3.2,0 6.1,1.1 7.9,2.9 C 73.9,9.2 74,14.8 74,19.6 74,24.5 73.9,30.1 70.7,33.3 Z M 60.4,10.4 c -4.8,0 -5.5,4 -5.5,9.3 0,5.3 0.6,9.3 5.5,9.3 4.9,0 5.5,-4 5.5,-9.3 0,-5.3 -0.6,-9.3 -5.5,-9.3 z"
   id="path4" />
<path
   class="st0"
   d="M 98.2,35.8 V 33 C 96,35.2 94,36.1 90.3,36.1 86.6,36.1 84,35.2 82,33.2 80.3,31.5 79.4,28.9 79.4,26 c 0,-5.2 3.5,-9.4 11.1,-9.4 h 7.6 V 15 c 0,-3.5 -1.7,-5.1 -6,-5.1 -3.1,0 -4.5,0.7 -6.2,2.7 L 80.7,7.5999995 c 3.2,-3.5 6.3,-4.5 11.7,-4.5 9.1,0 13.8,3.8 13.8,11.4000005 V 35.8 Z M 98,22.2 h -6.4 c -2.9,0 -4.5,1.4 -4.5,3.7 0,2.2 1.5,3.7 4.7,3.7 2.2,0 3.7,-0.2 5.1,-1.6 0.9,-0.8 1.2,-2.1 1.2,-4.1 v -1.7 z"
   id="path6" />
<path
   class="st0"
   d="m 132.4,12.3 c -1.2,-1.2 -2.3,-1.9 -4.3,-1.9 -2.5,0 -5.2,1.9 -5.2,6 v 19.5 h -8.1 V 3.4999995 h 7.9 v 3.1 c 1.6,-1.9 4.7,-3.5 8.1,-3.5 3.2,0 5.4,0.8 7.6,3 z"
   id="path8" />
<path
   class="st0"
   d="m 154,36.2 c -6.5,0 -14.5,-3.5 -14.5,-16.6 0,-13.1000005 8,-16.5000005 14.5,-16.5000005 4.5,0 7.8,1.4 10.7,4.3 L 159.2,12.9 c -1.7,-1.8 -3.1,-2.5 -5.2,-2.5 -1.9,0 -3.4,0.7 -4.6,2.1 -1.2,1.6 -1.8,3.7 -1.8,7.1 0,3.4 0.6,5.7 1.8,7.2 1.2,1.4 2.7,2.1 4.6,2.1 2.1,0 3.5,-0.7 5.2,-2.5 l 5.5,5.4 c -2.9,3 -6.2,4.4 -10.7,4.4 z"
   id="path10" />
<path
   class="st0"
   d="m 192.2,32.2 c -2,2.1 -5.3,4 -10.1,4 -4.8,0 -8,-1.9 -10,-4 -2.9,-3 -3.7,-6.7 -3.7,-12.6 0,-5.8 0.7,-9.5 3.7,-12.5000005 2,-2.1 5.2,-4 10,-4 4.8,0 8.1,1.9 10.1,4 C 195.1,10.1 195.9,13.8 195.9,19.6 c -0.1,5.9 -0.8,9.6 -3.7,12.6 z m -6.3,-20.4 c -0.9,-0.9 -2.2,-1.4 -3.8,-1.4 -1.6,0 -2.8,0.5 -3.7,1.4 -1.7,1.7 -1.9,4.5 -1.9,7.8 0,3.4 0.2,6.2 1.9,7.9 0.9,0.9 2.1,1.4 3.7,1.4 1.6,0 2.9,-0.5 3.8,-1.4 1.7,-1.7 1.9,-4.5 1.9,-7.9 0,-3.3 -0.2,-6.1 -1.9,-7.8 z"
   id="path12" />
<path
   class="st0"
   d="m 222.1,35.8 v -3 c -2.1,2.2 -5.1,3.4 -8.1,3.4 -3.2,0 -5.8,-1.1 -7.6,-2.9 -2.6,-2.6 -3.3,-5.6 -3.3,-9.2 V 3.4999995 h 8.1 V 23.1 c 0,4.4 2.8,5.9 5.3,5.9 2.5,0 5.4,-1.5 5.4,-5.9 V 3.4999995 H 230 V 35.8 Z"
   id="path14" />
<path
   class="st0"
   d="m 256.7,12.3 c -1.2,-1.2 -2.3,-1.9 -4.3,-1.9 -2.5,0 -5.2,1.9 -5.2,6 v 19.5 h -8.1 V 3.4999995 h 7.9 v 3.1 c 1.6,-1.9 4.7,-3.5 8.1,-3.5 3.2,0 5.4,0.8 7.6,3 z"
   id="path16" />
<path
   class="st1"
   d="m 316.4,35.8 v -3 c -2.1,2.2 -5.1,3.4 -8.1,3.4 -3.2,0 -5.8,-1.1 -7.6,-2.9 -2.6,-2.6 -3.3,-5.6 -3.3,-9.2 V 3.4999995 h 8.1 V 23.1 c 0,4.4 2.8,5.9 5.3,5.9 2.5,0 5.4,-1.5 5.4,-5.9 V 3.4999995 h 8.1 V 35.8 Z"
   id="path18"
   inkscape:label="path18" />
<path
   class="st1"
   d="m 357.2,33.3 c -1.8,1.8 -4.7,2.9 -7.9,2.9 -3.3,0 -5.7,-0.9 -7.8,-3.2 v 14.7 h -8.1 V 3.4999995 h 7.8 v 3 c 2.2,-2.5 4.7,-3.4 8.1,-3.4 3.2,0 6.1,1.1 7.9,2.9 C 360.4,9.2 360.5,14.8 360.5,19.6 c 0,4.9 -0.1,10.5 -3.3,13.7 z M 346.9,10.4 c -4.8,0 -5.5,4 -5.5,9.3 0,5.3 0.6,9.3 5.5,9.3 4.9,0 5.5,-4 5.5,-9.3 0,-5.3 -0.6,-9.3 -5.5,-9.3 z"
   id="path20" />
<g
   id="g88"
   transform="translate(-17.6,-46.1)">
	<path
   class="st0"
   d="m 91,101.6 v -10 h 6.4 V 93 h -4.9 v 2.9 h 4.1 v 1.3 h -4.1 v 3 h 4.9 v 1.4 z"
   id="path22" />
	<path
   class="st0"
   d="m 103.8,101.6 v -4.3 c 0,-1.1 -0.6,-1.6 -1.4,-1.6 -0.8,0 -1.5,0.5 -1.5,1.6 v 4.3 h -1.4 v -7.1 h 1.4 v 0.7 c 0.5,-0.5 1.2,-0.8 1.9,-0.8 0.7,0 1.3,0.2 1.8,0.6 0.5,0.5 0.7,1.2 0.7,2 v 4.5 h -1.5 z"
   id="path24" />
	<path
   class="st0"
   d="m 109.6,101.6 c -1.3,0 -1.9,-1 -1.9,-2 v -3.9 h -0.8 v -1.1 h 0.8 v -2.2 h 1.4 v 2.2 h 1.4 v 1.1 h -1.4 v 3.8 c 0,0.5 0.3,0.8 0.8,0.8 h 0.6 v 1.2 h -0.9 z"
   id="path26" />
	<path
   class="st0"
   d="m 116.4,96.2 c -0.3,-0.3 -0.6,-0.5 -1.1,-0.5 -0.8,0 -1.4,0.6 -1.4,1.6 v 4.3 h -1.4 v -7.1 h 1.4 v 0.8 c 0.4,-0.5 1.1,-0.9 1.9,-0.9 0.7,0 1.2,0.2 1.7,0.7 z"
   id="path28" />
	<path
   class="st0"
   d="m 119.3,98.5 c 0,1.2 0.6,2 1.8,2 0.8,0 1.2,-0.2 1.7,-0.7 l 0.9,0.9 c -0.7,0.7 -1.4,1.1 -2.7,1.1 -1.8,0 -3.2,-0.9 -3.2,-3.6 0,-2.3 1.2,-3.6 3,-3.6 1.9,0 3,1.4 3,3.4 v 0.6 h -4.5 z m 3,-2 c -0.2,-0.5 -0.7,-0.9 -1.4,-0.9 -0.7,0 -1.2,0.4 -1.4,0.9 -0.1,0.3 -0.2,0.5 -0.2,1 h 3.2 c 0,-0.5 0,-0.7 -0.2,-1 z"
   id="path30" />
	<path
   class="st0"
   d="m 125.4,101.6 v -1.1 l 3.5,-4.7 h -3.3 v -1.3 h 5.1 v 1.1 l -3.6,4.7 h 3.6 v 1.3 z"
   id="path32" />
	<path
   class="st0"
   d="m 140.3,101.6 v -0.8 c -0.5,0.6 -1.1,0.8 -1.9,0.8 -0.7,0 -1.3,-0.2 -1.7,-0.6 -0.7,-0.7 -0.8,-1.9 -0.8,-3 0,-1.1 0.1,-2.3 0.8,-3 0.4,-0.4 1,-0.6 1.7,-0.6 0.8,0 1.3,0.2 1.9,0.8 v -3.6 h 1.4 v 10 z m -1.5,-5.9 c -1.3,0 -1.5,1.1 -1.5,2.4 0,1.3 0.2,2.4 1.5,2.4 1.3,0 1.5,-1.1 1.5,-2.4 0,-1.3 -0.3,-2.4 -1.5,-2.4 z"
   id="path34" />
	<path
   class="st0"
   d="M 147.9,101.6 V 101 c -0.5,0.5 -1,0.7 -1.9,0.7 -0.9,0 -1.5,-0.2 -1.9,-0.6 -0.4,-0.4 -0.6,-0.9 -0.6,-1.5 0,-1.2 0.8,-2 2.5,-2 h 1.9 V 97 c 0,-0.9 -0.4,-1.3 -1.6,-1.3 -0.8,0 -1.2,0.2 -1.6,0.7 l -0.9,-0.9 c 0.7,-0.8 1.4,-1 2.5,-1 1.9,0 2.9,0.8 2.9,2.4 v 4.7 z m 0,-3.1 h -1.7 c -0.8,0 -1.3,0.4 -1.3,1 0,0.6 0.4,1 1.3,1 0.5,0 1,0 1.3,-0.4 0.2,-0.2 0.3,-0.5 0.3,-1.1 v -0.5 z"
   id="path36" />
	<path
   class="st0"
   d="m 155.9,101.6 v -4.3 c 0,-1.1 -0.6,-1.6 -1.4,-1.6 -0.8,0 -1.5,0.5 -1.5,1.6 v 4.3 h -1.4 v -7.1 h 1.4 v 0.7 c 0.5,-0.5 1.2,-0.8 1.9,-0.8 0.7,0 1.3,0.2 1.8,0.6 0.5,0.5 0.7,1.2 0.7,2 v 4.5 h -1.5 z"
   id="path38" />
	<path
   class="st0"
   d="m 162,101.7 c -1.2,0 -2.1,-0.2 -3,-1 l 0.9,-0.9 c 0.6,0.6 1.3,0.7 2,0.7 0.9,0 1.6,-0.3 1.6,-1 0,-0.5 -0.3,-0.8 -1,-0.8 l -1.1,-0.1 c -1.3,-0.1 -2.1,-0.7 -2.1,-2 0,-1.4 1.2,-2.2 2.7,-2.2 1.1,0 2,0.2 2.6,0.8 l -0.9,0.9 c -0.4,-0.4 -1.1,-0.5 -1.8,-0.5 -0.9,0 -1.3,0.4 -1.3,0.9 0,0.4 0.2,0.7 1,0.8 l 1.1,0.1 c 1.3,0.1 2.1,0.7 2.1,2 0.2,1.5 -1.1,2.3 -2.8,2.3 z"
   id="path40" />
	<path
   class="st0"
   d="m 172.2,101.6 c -1.4,0 -1.9,-0.9 -1.9,-2 v -8 h 1.4 v 7.9 c 0,0.5 0.2,0.8 0.8,0.8 h 0.6 v 1.2 h -0.9 z"
   id="path42" />
	<path
   class="st0"
   d="m 173.9,94.4 v -2.7 h 1.6 v 1.5 z"
   id="path44" />
	<path
   class="st0"
   d="m 178.9,98.5 c 0,1.2 0.6,2 1.8,2 0.8,0 1.2,-0.2 1.7,-0.7 l 0.9,0.9 c -0.7,0.7 -1.4,1.1 -2.7,1.1 -1.8,0 -3.2,-0.9 -3.2,-3.6 0,-2.3 1.2,-3.6 3,-3.6 1.9,0 3,1.4 3,3.4 v 0.6 h -4.5 z m 3,-2 c -0.2,-0.5 -0.7,-0.9 -1.4,-0.9 -0.7,0 -1.2,0.4 -1.4,0.9 -0.1,0.3 -0.2,0.5 -0.2,1 h 3.2 c 0,-0.5 0,-0.7 -0.2,-1 z"
   id="path46" />
	<path
   class="st0"
   d="m 189.9,101.6 v -4.3 c 0,-1.1 -0.6,-1.6 -1.4,-1.6 -0.8,0 -1.5,0.5 -1.5,1.6 v 4.3 h -1.4 v -7.1 h 1.4 v 0.7 c 0.5,-0.5 1.2,-0.8 1.9,-0.8 0.7,0 1.3,0.2 1.8,0.6 0.5,0.5 0.7,1.2 0.7,2 v 4.5 h -1.5 z"
   id="path48" />
	<path
   class="st0"
   d="m 196,101.7 c -1.2,0 -2.1,-0.2 -3,-1 l 0.9,-0.9 c 0.6,0.6 1.3,0.7 2,0.7 0.9,0 1.6,-0.3 1.6,-1 0,-0.5 -0.3,-0.8 -1,-0.8 l -1.1,-0.1 c -1.3,-0.1 -2.1,-0.7 -2.1,-2 0,-1.4 1.2,-2.2 2.7,-2.2 1.1,0 2,0.2 2.6,0.8 l -0.9,0.9 c -0.4,-0.4 -1.1,-0.5 -1.8,-0.5 -0.9,0 -1.3,0.4 -1.3,0.9 0,0.4 0.2,0.7 1,0.8 l 1.1,0.1 c 1.3,0.1 2.1,0.7 2.1,2 0.1,1.5 -1.1,2.3 -2.8,2.3 z"
   id="path50" />
	<path
   class="st0"
   d="m 201.8,98.5 c 0,1.2 0.6,2 1.8,2 0.8,0 1.2,-0.2 1.7,-0.7 l 0.9,0.9 c -0.7,0.7 -1.4,1.1 -2.7,1.1 -1.8,0 -3.2,-0.9 -3.2,-3.6 0,-2.3 1.2,-3.6 3,-3.6 1.9,0 3,1.4 3,3.4 v 0.6 h -4.5 z m 3,-2 c -0.2,-0.5 -0.7,-0.9 -1.4,-0.9 -0.7,0 -1.2,0.4 -1.4,0.9 -0.1,0.3 -0.2,0.5 -0.2,1 h 3.2 c 0,-0.5 0,-0.7 -0.2,-1 z"
   id="path52" />
	<path
   class="st0"
   d="m 208.4,93.1 v -1.5 h 1.5 v 1.5 z m 0.1,8.5 v -7.1 h 1.4 v 7.1 z"
   id="path54" />
	<path
   class="st0"
   d="m 214.7,104.5 c -1.1,0 -1.8,-0.3 -2.5,-0.9 l 0.9,-0.9 c 0.4,0.4 0.8,0.6 1.5,0.6 1.2,0 1.7,-0.9 1.7,-1.8 v -0.9 c -0.5,0.6 -1.1,0.8 -1.8,0.8 -0.7,0 -1.3,-0.2 -1.7,-0.6 -0.7,-0.7 -0.8,-1.7 -0.8,-2.9 0,-1.2 0.1,-2.2 0.8,-2.9 0.4,-0.4 1,-0.6 1.7,-0.6 0.8,0 1.3,0.2 1.9,0.8 v -0.8 h 1.4 v 7.1 c -0.1,1.8 -1.2,3 -3.1,3 z m 0.2,-8.8 c -1.3,0 -1.5,1.1 -1.5,2.2 0,1.1 0.2,2.2 1.5,2.2 1.3,0 1.4,-1.1 1.4,-2.2 0,-1.1 -0.2,-2.2 -1.4,-2.2 z"
   id="path56" />
	<path
   class="st0"
   d="m 224.5,101.6 v -4.3 c 0,-1.1 -0.6,-1.6 -1.4,-1.6 -0.8,0 -1.5,0.5 -1.5,1.6 v 4.3 h -1.4 v -7.1 h 1.4 v 0.7 c 0.5,-0.5 1.2,-0.8 1.9,-0.8 0.7,0 1.3,0.2 1.8,0.6 0.5,0.5 0.7,1.2 0.7,2 v 4.5 h -1.5 z"
   id="path58" />
	<path
   class="st0"
   d="m 229.3,98.5 c 0,1.2 0.6,2 1.8,2 0.8,0 1.2,-0.2 1.7,-0.7 l 0.9,0.9 c -0.7,0.7 -1.4,1.1 -2.7,1.1 -1.8,0 -3.2,-0.9 -3.2,-3.6 0,-2.3 1.2,-3.6 3,-3.6 1.9,0 3,1.4 3,3.4 v 0.6 h -4.5 z m 3,-2 c -0.2,-0.5 -0.7,-0.9 -1.4,-0.9 -0.7,0 -1.2,0.4 -1.4,0.9 -0.1,0.3 -0.2,0.5 -0.2,1 h 3.2 c 0,-0.5 -0.1,-0.7 -0.2,-1 z"
   id="path60" />
	<path
   class="st0"
   d="m 244.6,101.6 v -4.3 c 0,-1.1 -0.6,-1.6 -1.4,-1.6 -0.8,0 -1.5,0.5 -1.5,1.5 v 4.4 h -1.4 v -4.3 c 0,-1.1 -0.6,-1.6 -1.4,-1.6 -0.8,0 -1.5,0.5 -1.5,1.6 v 4.3 H 236 v -7.1 h 1.4 v 0.7 c 0.5,-0.5 1.2,-0.8 1.9,-0.8 0.9,0 1.6,0.3 2,1 0.6,-0.7 1.3,-1 2.2,-1 0.7,0 1.4,0.2 1.8,0.6 0.5,0.5 0.8,1.2 0.8,2 v 4.5 h -1.5 z"
   id="path62" />
	<path
   class="st0"
   d="m 249.4,98.5 c 0,1.2 0.6,2 1.8,2 0.8,0 1.2,-0.2 1.7,-0.7 l 0.9,0.9 c -0.7,0.7 -1.4,1.1 -2.7,1.1 -1.8,0 -3.2,-0.9 -3.2,-3.6 0,-2.3 1.2,-3.6 3,-3.6 1.9,0 3,1.4 3,3.4 v 0.6 h -4.5 z m 3,-2 c -0.2,-0.5 -0.7,-0.9 -1.4,-0.9 -0.7,0 -1.2,0.4 -1.4,0.9 -0.1,0.3 -0.2,0.5 -0.2,1 h 3.2 c 0,-0.5 -0.1,-0.7 -0.2,-1 z"
   id="path64" />
	<path
   class="st0"
   d="m 260.3,101.6 v -4.3 c 0,-1.1 -0.6,-1.6 -1.4,-1.6 -0.8,0 -1.5,0.5 -1.5,1.6 v 4.3 H 256 v -7.1 h 1.4 v 0.7 c 0.5,-0.5 1.2,-0.8 1.9,-0.8 0.7,0 1.3,0.2 1.8,0.6 0.5,0.5 0.7,1.2 0.7,2 v 4.5 h -1.5 z"
   id="path66" />
	<path
   class="st0"
   d="m 266.2,101.6 c -1.3,0 -1.9,-1 -1.9,-2 v -3.9 h -0.8 v -1.1 h 0.8 v -2.2 h 1.4 v 2.2 h 1.4 v 1.1 h -1.4 v 3.8 c 0,0.5 0.3,0.8 0.8,0.8 h 0.6 v 1.2 h -0.9 z"
   id="path68" />
	<path
   class="st0"
   d="m 274.8,101.7 c -1.2,0 -2.1,-0.2 -3,-1 l 0.9,-0.9 c 0.6,0.6 1.3,0.7 2,0.7 0.9,0 1.6,-0.3 1.6,-1 0,-0.5 -0.3,-0.8 -1,-0.8 l -1.1,-0.1 c -1.3,-0.1 -2.1,-0.7 -2.1,-2 0,-1.4 1.2,-2.2 2.7,-2.2 1.1,0 2,0.2 2.6,0.8 l -0.9,0.9 c -0.4,-0.4 -1.1,-0.5 -1.8,-0.5 -0.9,0 -1.3,0.4 -1.3,0.9 0,0.4 0.2,0.7 1,0.8 l 1.1,0.1 c 1.3,0.1 2.1,0.7 2.1,2 0.2,1.5 -1.1,2.3 -2.8,2.3 z"
   id="path70" />
	<path
   class="st0"
   d="m 283.9,101.6 v -0.7 c -0.5,0.5 -1.2,0.8 -1.9,0.8 -0.7,0 -1.3,-0.2 -1.8,-0.6 -0.5,-0.5 -0.7,-1.2 -0.7,-2 v -4.5 h 1.4 v 4.3 c 0,1.1 0.6,1.6 1.4,1.6 0.8,0 1.5,-0.5 1.5,-1.6 v -4.3 h 1.4 v 7.1 h -1.3 z"
   id="path72" />
	<path
   class="st0"
   d="m 292.8,101 c -0.4,0.4 -1,0.6 -1.7,0.6 -0.8,0 -1.3,-0.2 -1.9,-0.8 v 3.6 h -1.4 v -10 h 1.4 v 0.8 c 0.5,-0.6 1.1,-0.8 1.9,-0.8 0.7,0 1.3,0.2 1.7,0.6 0.7,0.7 0.8,1.9 0.8,3 0,1.1 -0.1,2.3 -0.8,3 z m -2.1,-5.3 c -1.3,0 -1.5,1.1 -1.5,2.4 0,1.3 0.2,2.4 1.5,2.4 1.3,0 1.5,-1.1 1.5,-2.4 0,-1.3 -0.2,-2.4 -1.5,-2.4 z"
   id="path74" />
	<path
   class="st0"
   d="m 296.7,98.5 c 0,1.2 0.6,2 1.8,2 0.8,0 1.2,-0.2 1.7,-0.7 l 0.9,0.9 c -0.7,0.7 -1.4,1.1 -2.7,1.1 -1.8,0 -3.2,-0.9 -3.2,-3.6 0,-2.3 1.2,-3.6 3,-3.6 1.9,0 3,1.4 3,3.4 v 0.6 h -4.5 z m 3,-2 c -0.2,-0.5 -0.7,-0.9 -1.4,-0.9 -0.7,0 -1.2,0.4 -1.4,0.9 -0.1,0.3 -0.2,0.5 -0.2,1 h 3.2 c 0,-0.5 -0.1,-0.7 -0.2,-1 z m -1,-3.3 h -1.1 l 1.1,-2.3 h 1.6 z"
   id="path76" />
	<path
   class="st0"
   d="m 307.2,96.2 c -0.3,-0.3 -0.6,-0.5 -1.1,-0.5 -0.8,0 -1.4,0.6 -1.4,1.6 v 4.3 h -1.4 v -7.1 h 1.4 v 0.8 c 0.4,-0.5 1.1,-0.9 1.9,-0.9 0.7,0 1.2,0.2 1.7,0.7 z"
   id="path78" />
	<path
   class="st0"
   d="m 309.6,93.1 v -1.5 h 1.5 v 1.5 z m 0,8.5 v -7.1 h 1.4 v 7.1 z"
   id="path80" />
	<path
   class="st0"
   d="m 314.5,98.5 c 0,1.2 0.6,2 1.8,2 0.8,0 1.2,-0.2 1.7,-0.7 l 0.9,0.9 c -0.7,0.7 -1.4,1.1 -2.7,1.1 -1.8,0 -3.2,-0.9 -3.2,-3.6 0,-2.3 1.2,-3.6 3,-3.6 1.9,0 3,1.4 3,3.4 v 0.6 h -4.5 z m 3,-2 c -0.2,-0.5 -0.7,-0.9 -1.4,-0.9 -0.7,0 -1.2,0.4 -1.4,0.9 -0.1,0.3 -0.2,0.5 -0.2,1 h 3.2 c 0,-0.5 -0.1,-0.7 -0.2,-1 z"
   id="path82" />
	<path
   class="st0"
   d="m 325.4,101.6 v -0.7 c -0.5,0.5 -1.2,0.8 -1.9,0.8 -0.7,0 -1.3,-0.2 -1.8,-0.6 -0.5,-0.5 -0.7,-1.2 -0.7,-2 v -4.5 h 1.4 v 4.3 c 0,1.1 0.6,1.6 1.4,1.6 0.8,0 1.5,-0.5 1.5,-1.6 v -4.3 h 1.4 v 7.1 h -1.3 z"
   id="path84" />
	<path
   class="st0"
   d="m 333.1,96.2 c -0.3,-0.3 -0.6,-0.5 -1.1,-0.5 -0.8,0 -1.4,0.6 -1.4,1.6 v 4.3 h -1.4 v -7.1 h 1.4 v 0.8 c 0.4,-0.5 1.1,-0.9 1.9,-0.9 0.7,0 1.2,0.2 1.7,0.7 z"
   id="path86" />
</g>
<g
   id="g102"
   transform="translate(-17.6,-46.1)">
	<g
   id="g94">
		<path
   class="st0"
   d="m 295.2,55.9 c 2.8,0 5.7,0.5 7.5,2.2 l 5,-5 c -3.1,-2.9 -7.3,-3.8 -12.4,-3.8 -0.2,0 -0.3,0 -0.5,0 v 6.6 c 0.2,0 0.3,0 0.4,0 z"
   id="path90" />
		<path
   class="st0"
   d="m 299,62.3 -4.2,-0.4 v 7 l 2.5,0.2 c 2.5,0.2 3.4,1.4 3.4,3 0,2.4 -2.9,3.4 -5.7,3.4 -0.1,0 -0.1,0 -0.2,0 v 6.9 c 0,0 0.1,0 0.1,0 7.6,0 13.7,-3.4 13.7,-10.6 0.1,-5.5 -3.2,-8.9 -9.6,-9.5 z"
   id="path92" />
	</g>
	<g
   id="g100">
		<path
   class="st1"
   d="m 282.8,59.5 c 0,6 3.6,8.5 9.4,9.1 l 2.6,0.3 v -7 l -0.9,-0.1 c -2.9,-0.2 -3.4,-1.6 -3.4,-2.8 0,-1.6 1.3,-3 4.3,-3.1 v -6.6 c -6.3,0.1 -12,3.7 -12,10.2 z"
   id="path96" />
		<path
   class="st1"
   d="m 286.4,72.4 -5.3,5.3 c 4.1,4.1 8.6,4.6 13.7,4.7 V 75.5 C 292.4,75.4 289,75 286.4,72.4 Z"
   id="path98" />
	</g>
</g>
<g
   id="g110"
   transform="translate(-17.6,-46.1)">
	<path
   class="st1"
   d="M 35.4,79.9 H 21.7 c -2.2,0 -4.1,1.8 -4.1,4.1 0,2.2 1.8,4.1 4.1,4.1 h 9.7 v 9.7 c 0,2.2 1.8,4.1 4.1,4.1 1.1,0 2.1,-0.5 2.9,-1.2 0.7,-0.7 1.2,-1.8 1.2,-2.9 V 84.1 c 0,-1.1 -0.5,-2.1 -1.2,-2.9 -0.9,-0.9 -1.9,-1.3 -3,-1.3"
   id="path104" />
	<path
   class="st0"
   d="M 52,63 H 38.3 c -2.2,0 -4.1,1.8 -4.1,4.1 0,2.2 1.8,4.1 4.1,4.1 H 48 v 9.7 c 0,2.2 1.8,4.1 4.1,4.1 1.1,0 2.1,-0.5 2.9,-1.2 0.7,-0.7 1.2,-1.8 1.2,-2.9 V 67.2 C 56.2,66.1 55.7,65.1 55,64.3 54.1,63.5 53.1,63 52,63"
   id="path106" />
	<path
   class="st1"
   d="M 68.5,46.1 H 54.8 c -2.2,0 -4.1,1.8 -4.1,4.1 0,2.2 1.8,4.1 4.1,4.1 h 9.7 V 64 c 0,2.2 1.8,4.1 4.1,4.1 1.1,0 2.1,-0.5 2.9,-1.2 0.7,-0.7 1.2,-1.8 1.2,-2.9 V 50.3 c 0,-1.1 -0.5,-2.1 -1.2,-2.9 -0.7,-0.8 -1.8,-1.3 -3,-1.3"
   id="path108" />
</g>
</svg>
